<?xml version="1.0" encoding="UTF-8" standalone="no"?>
<!-- Page 1 -->

<svg
   xmlns:dc="http://purl.org/dc/elements/1.1/"
   xmlns:cc="http://creativecommons.org/ns#"
   xmlns:rdf="http://www.w3.org/1999/02/22-rdf-syntax-ns#"
   xmlns:svg="http://www.w3.org/2000/svg"
   xmlns="http://www.w3.org/2000/svg"
   xmlns:xlink="http://www.w3.org/1999/xlink"
   xmlns:sodipodi="http://sodipodi.sourceforge.net/DTD/sodipodi-0.dtd"
   xmlns:inkscape="http://www.inkscape.org/namespaces/inkscape"
   x="0"
   y="0"
   width="904"
   height="713"
   viewBox="0 0 904 713"
   version="1.1"
   style="display: block;margin-left: auto;margin-right: auto;"
   id="svg3797"
   sodipodi:docname="Raw_Logo_Outline.svg"
   inkscape:version="0.92.4 (5da689c313, 2019-01-14)">
  <metadata
     id="metadata3801">
    <rdf:RDF>
      <cc:Work
         rdf:about="">
        <dc:format>image/svg+xml</dc:format>
        <dc:type
           rdf:resource="http://purl.org/dc/dcmitype/StillImage" />
      </cc:Work>
    </rdf:RDF>
  </metadata>
  <sodipodi:namedview
     pagecolor="#ffffff"
     bordercolor="#666666"
     borderopacity="1"
     objecttolerance="10"
     gridtolerance="10"
     guidetolerance="10"
     inkscape:pageopacity="0"
     inkscape:pageshadow="2"
     inkscape:window-width="1920"
     inkscape:window-height="1057"
     id="namedview3799"
     showgrid="false"
     inkscape:zoom="0.88066034"
     inkscape:cx="434.73673"
     inkscape:cy="320.30169"
     inkscape:window-x="-8"
     inkscape:window-y="-8"
     inkscape:window-maximized="1"
     inkscape:current-layer="layer2"
     showguides="true" />
  <defs
     id="defs3763">
    <linearGradient
       id="linearGradient4897"
       inkscape:collect="always">
      <stop
         id="stop4893"
         offset="0"
         style="stop-color:#540e5a;stop-opacity:1" />
      <stop
         id="stop4895"
         offset="1"
         style="stop-color:#a127ac;stop-opacity:0.94117647" />
    </linearGradient>
    <linearGradient
       id="linearGradient4891"
       inkscape:collect="always">
      <stop
         id="stop4887"
         offset="0"
         style="stop-color:#540e5a;stop-opacity:1" />
      <stop
         id="stop4889"
         offset="1"
         style="stop-color:#a127ac;stop-opacity:0.94117647" />
    </linearGradient>
    <linearGradient
       id="linearGradient4885"
       inkscape:collect="always">
      <stop
         id="stop4881"
         offset="0"
         style="stop-color:#540e5a;stop-opacity:1" />
      <stop
         id="stop4883"
         offset="1"
         style="stop-color:#a127ac;stop-opacity:0.94117647" />
    </linearGradient>
    <linearGradient
       id="linearGradient4879"
       inkscape:collect="always">
      <stop
         id="stop4875"
         offset="0"
         style="stop-color:#540e5a;stop-opacity:1" />
      <stop
         id="stop4877"
         offset="1"
         style="stop-color:#a127ac;stop-opacity:0.94117647" />
    </linearGradient>
    <linearGradient
       id="linearGradient4873"
       inkscape:collect="always">
      <stop
         id="stop4869"
         offset="0"
         style="stop-color:#540e5a;stop-opacity:1" />
      <stop
         id="stop4871"
         offset="1"
         style="stop-color:#a127ac;stop-opacity:0.94117647" />
    </linearGradient>
    <linearGradient
       inkscape:collect="always"
       id="linearGradient4855">
      <stop
         style="stop-color:#540e5a;stop-opacity:1"
         offset="0"
         id="stop4851" />
      <stop
         style="stop-color:#a127ac;stop-opacity:0.94117647"
         offset="1"
         id="stop4853" />
    </linearGradient>
    <clipPath
       id="c_1">
      <path
         d="M0,0H904V713H0Z"
         id="path3758" />
    </clipPath>
    <style
       type="text/css"
       id="style3761"><![CDATA[

.g0{
stroke: #000000;
stroke-width: 0.152;
stroke-linecap: butt;
stroke-linejoin: miter;
}

]]></style>
    <linearGradient
       inkscape:collect="always"
       xlink:href="#linearGradient4855"
       id="linearGradient4857"
       x1="371.31226"
       y1="602.85535"
       x2="471.2373"
       y2="111.17887"
       gradientUnits="userSpaceOnUse" />
    <linearGradient
       inkscape:collect="always"
       xlink:href="#linearGradient4897"
       id="linearGradient4859"
       x1="371.31226"
       y1="602.85535"
       x2="471.2373"
       y2="111.17887"
       gradientUnits="userSpaceOnUse" />
    <linearGradient
       inkscape:collect="always"
       xlink:href="#linearGradient4891"
       id="linearGradient4861"
       x1="371.31226"
       y1="602.85535"
       x2="471.2373"
       y2="111.17887"
       gradientUnits="userSpaceOnUse" />
    <linearGradient
       inkscape:collect="always"
       xlink:href="#linearGradient4885"
       id="linearGradient4863"
       x1="371.31226"
       y1="602.85535"
       x2="471.2373"
       y2="111.17887"
       gradientUnits="userSpaceOnUse" />
    <linearGradient
       inkscape:collect="always"
       xlink:href="#linearGradient4879"
       id="linearGradient4865"
       x1="371.31226"
       y1="602.85535"
       x2="471.2373"
       y2="111.17887"
       gradientUnits="userSpaceOnUse" />
    <linearGradient
       inkscape:collect="always"
       xlink:href="#linearGradient4873"
       id="linearGradient4867"
       x1="371.31226"
       y1="602.85535"
       x2="471.2373"
       y2="111.17887"
       gradientUnits="userSpaceOnUse" />
  </defs>
  <g
     inkscape:groupmode="layer"
     id="layer3"
     inkscape:label="FillGradient"
     style="display:inline"
     sodipodi:insensitive="true">
    <path
       style="display:inline;fill:url(#linearGradient4857);fill-opacity:1;stroke-width:1.13551152"
       d="m 99.310711,191.61895 c -27.0696,-2.679 -51.592289,-19.98537 -63.412228,-44.75183 -6.03136,-12.63757 -8.294058,-24.0975 -7.602138,-38.5027 1.233258,-25.675393 13.109337,-47.252471 34.134981,-62.018206 31.72394,-22.278853 74.983634,-18.181912 102.386834,9.696621 9.37926,9.541952 15.39253,19.3542 19.52464,31.859647 2.56752,7.77037 3.71747,11.136784 3.79616,23.277988 0.10231,15.78545 -2.22836,23.76243 -7.97683,35.64083 -14.78983,30.56106 -46.60183,48.18724 -80.851419,44.79765 z"
       id="path4826"
       inkscape:connector-curvature="0"
       sodipodi:nodetypes="sssssssss" />
    <path
       style="display:inline;fill:url(#linearGradient4859);fill-opacity:1;stroke-width:1.13551152"
       d="m 486.73569,519.51842 c 0,-0.24543 4.21558,-1.83957 9.36797,-3.54254 57.04359,-18.85423 98.64036,-65.94999 111.12312,-125.81338 3.55679,-17.05723 3.5881,-45.41268 0.0696,-63.03241 -6.99227,-35.01532 -23.94505,-65.60791 -49.80702,-89.88057 -24.798,-23.27405 -55.21333,-37.88179 -90.16438,-43.30377 -6.09599,-0.94567 -52.53156,-1.23589 -168.80034,-1.055 -88.21506,0.13723 -160.39101,-0.0309 -160.39101,-0.37354 0,-0.3427 3.67858,-2.46923 8.17462,-4.72564 23.77175,-11.93021 40.24616,-33.91191 45.27445,-60.40943 2.17681,-11.47108 0.86959,-30.898436 -2.80929,-41.750681 -7.49045,-22.095876 -22.27406,-39.118187 -43.25896,-49.809723 l -7.94858,-4.0497 156.7006,-0.02112 c 160.97184,-0.0217 178.86104,-1.019293 203.1602,3.130361 126.80751,21.655379 229.81101,115.497983 263.63106,239.640053 13.39591,49.17192 13.84099,107.63582 1.88503,158.59421 -6.61446,28.19203 -23.68965,69.95485 -33.42567,83.72644 l -1.40468,3.02228 -121.08981,0.10037 c -66.15778,0.0548 -120.28691,-0.20079 -120.28691,-0.44621 z"
       id="path4798"
       inkscape:connector-curvature="0"
       sodipodi:nodetypes="scsssssssssscssssccss" />
    <path
       style="display:inline;fill:url(#linearGradient4861);fill-opacity:1;stroke-width:1.13551152"
       d="M 722.53071,178.36086 C 693.25307,132.61838 653.72183,96.203914 608.65553,70.765811 579.75158,54.450699 556.40715,45.104249 523.63981,36.727925 l -19.30369,-4.934609 148.75201,-1.152137 c 166.00336,-1.285756 152.82916,1.076868 170.45646,9.707212 42.22462,20.67323 57.44069,73.794559 32.5918,113.782319 -8.75452,14.08808 -20.2843,24.27149 -35.07209,30.9766 -13.20448,5.98719 -18.49757,8.81474 -54.93745,8.47344 l -34.053,-0.30998 z"
       id="path4824"
       inkscape:connector-curvature="0"
       sodipodi:nodetypes="ssscssssscs" />
    <path
       style="display:inline;fill:url(#linearGradient4863);fill-opacity:1;stroke-width:1.13551152"
       d="m 408.38539,682.91952 c -60.50452,-6.659 -118.968,-29.45664 -167.6299,-67.86146 C 227.23913,604.39071 200.19913,576.71917 189.37404,563.21444 179.33136,550.6858 164.45218,528.16161 156.74452,513.81969 105.47225,418.41554 104.6011,307.39791 153.48585,209.9245 l 6.24148,-12.44515 121.34831,-0.64709 121.06444,0.77229 -10.06456,3.34965 c -59.18431,19.69755 -102.22339,70.92801 -112.03184,133.35423 -1.86865,11.8931 -1.54136,39.34308 0.61744,51.78555 5.96153,34.35977 21.87504,64.72407 46.96701,89.61686 23.77376,23.58505 50.02697,37.85263 83.93783,45.61685 L 422.6,523.3 l 173.71255,0.3102 c 143.81472,0.2568 174.50932,0.0256 171.02905,1.25927 -6.28589,2.22823 -21.23951,11.52526 -28.87438,18.74916 -16.63835,15.74272 -25.86962,37.43146 -25.86663,60.77329 0.005,33.08353 16.37846,60.17016 45.82239,75.80045 l 9.92253,4.76309 -173.87816,1.34505 c -131.01159,1.01345 -161.1147,-0.48354 -171.02706,-1.57448 z"
       id="path4818"
       inkscape:connector-curvature="0"
       sodipodi:nodetypes="csssscccssssscscscscscc" />
    <path
       style="display:inline;fill:url(#linearGradient4865);fill-opacity:1;stroke-width:1.13551152"
       d="m 777.31356,683.95991 c -26.04897,-7.04446 -47.15413,-28.43788 -55.84793,-53.66032 -6.8924,-19.9962 -6.64534,-41.30745 3.20224,-61.79662 8.94951,-18.62062 27.86969,-33.30557 48.78449,-40.26337 7.97041,-2.65154 10.94399,-3.59913 23.89592,-3.59913 12.95193,0 15.82515,0.94759 23.79556,3.59913 13.09614,4.35674 22.98353,9.10075 33.35748,19.46155 16.37762,16.35685 25.25071,36.88342 24.15499,60.23118 -1.01581,21.64514 -9.94202,40.63829 -26.3149,56.21237 -9.64388,9.17337 -17.10472,12.23387 -29.76239,16.67389 -11.71036,4.10775 -33.08585,6.43508 -45.26546,3.14132 z"
       id="path4820"
       inkscape:connector-curvature="0"
       sodipodi:nodetypes="ssssssssscs" />
    <path
       style="display:inline;fill:url(#linearGradient4867);fill-opacity:1;stroke-width:1.13551152"
       d="m 84.338777,684.98169 c -4.059454,-0.86937 -16.895481,-4.0611 -22.828529,-6.9751 -9.021209,-4.43072 -16.053372,-8.64133 -24.229301,-16.87244 -8.088097,-8.14268 -10.88297,-11.59442 -15.221106,-20.46671 -11.889433,-24.31606 -10.838668,-50.21937 1.917103,-74.86514 6.352281,-12.27341 20.78714,-26.62324 34.115543,-33.28846 16.619326,-8.31094 23.376069,-9.4118 65.411743,-8.32421 l 33.9137,-0.39265 6.65036,10.56897 c 44.92502,71.3963 116.35857,124.09052 199.46439,145.21663 l 22.81651,5.30861 -152.33579,0.3509 c -123.20837,0.28381 -143.58446,1.04385 -149.674623,-0.2604 z"
       id="path4822"
       inkscape:connector-curvature="0"
       sodipodi:nodetypes="ccssssscsscsc" />
  </g>
  <g
     inkscape:groupmode="layer"
     id="layer2"
     inkscape:label="Image"
     style="display:inline">
    <path
       style="fill:none;fill-opacity:1;stroke:#ffff01;stroke-width:5;stroke-opacity:1;stroke-miterlimit:4;stroke-dasharray:none"
       d="M 76.458533,682.81543 C 60.782115,679.38623 43.2028,668.31807 32.661794,655.24044 -0.34365413,614.29243 13.553201,553.80862 61.007033,531.87237 c 14.807664,-6.84506 18.908368,-7.34924 59.686907,-7.33848 l 36.83158,0.01 5.02456,8.22274 c 45.59359,74.61434 121.85564,128.96704 209.01937,148.97016 l 11.92287,2.73616 -149.88753,-0.0348 C 109.5287,684.40924 82.467272,684.12983 76.458533,682.81543 Z"
       id="path4899"
       inkscape:connector-curvature="0" />
    <path
       style="fill:none;fill-opacity:1;stroke:#ffff01;stroke-width:5;stroke-opacity:1;stroke-miterlimit:4;stroke-dasharray:none"
       d="M 418.12542,683.88117 C 391.06422,681.2482 377.68457,678.7635 353.96902,671.96681 271.61422,648.36459 201.30518,592.59488 159.4984,517.7111 118.53757,444.34256 107.43959,359.73633 128.03406,277.84052 c 5.28952,-21.03424 12.61605,-40.96496 22.96008,-62.45938 l 8.60669,-17.8843 121.02983,0.0734 121.02984,0.0734 -10.83414,3.71175 c -69.89116,23.94456 -115.34094,90.80896 -112.01991,164.80044 3.43374,76.50249 56.3592,137.99244 133.64141,155.2675 10.66307,2.38354 12.76664,2.41857 182.5651,3.03999 l 171.77775,0.62866 -7.69633,3.74472 c -20.6801,10.06206 -36.99471,29.89056 -43.67517,53.08204 -3.72619,12.93562 -3.70104,33.80634 0.0554,45.93704 7.62361,24.61921 24.94452,44.65781 47.13485,54.53042 4.57066,2.03351 0.44469,2.08225 -167.91196,1.98323 -94.92876,-0.0559 -174.38618,-0.27553 -176.57204,-0.4882 z"
       id="path4901"
       inkscape:connector-curvature="0" />
    <path
       style="fill:none;fill-opacity:1;stroke:#ffff01;stroke-width:5;stroke-opacity:1;stroke-miterlimit:4;stroke-dasharray:none"
       d="m 487.50028,519.49496 c 0.27364,-0.27364 5.35473,-2.25577 11.29133,-4.40472 24.70365,-8.94236 44.28718,-21.29238 62.46145,-39.39023 16.8329,-16.76212 27.82642,-33.03634 36.12584,-53.47879 9.88062,-24.3371 13.44078,-45.23828 12.26362,-71.99808 -0.80983,-18.40943 -3.48197,-32.1263 -9.3253,-47.86941 -21.48955,-57.89712 -69.22678,-97.53316 -129.95827,-107.90383 -9.65769,-1.64917 -27.64312,-1.81295 -171.74612,-1.56391 -88.52732,0.153 -160.95877,0.0237 -160.95877,-0.28724 0,-0.31097 3.33139,-2.12436 7.40308,-4.02972 21.72592,-10.1668 39.10847,-31.46117 45.33468,-55.53695 9.92341,-38.37229 -8.96311,-79.505206 -44.54936,-97.024001 l -7.57311,-3.728174 154.40581,-0.329327 c 159.83051,-0.340898 180.36066,0.08423 204.93607,4.243739 89.63689,15.171475 168.86894,66.595693 218.7852,141.998823 26.14424,39.49327 42.22015,80.44091 50.15233,127.74505 11.08282,66.09327 0.34554,137.01209 -29.91235,197.56837 l -7.94858,15.90781 -120.84253,0.28906 c -66.4634,0.15899 -120.61866,0.0652 -120.34502,-0.20847 z"
       id="path4903"
       inkscape:connector-curvature="0" />
    <path
       style="fill:none;fill-opacity:1;stroke:#ffff01;stroke-width:5;stroke-opacity:1;stroke-miterlimit:4;stroke-dasharray:none"
       d="M 724.36249,181.24531 C 681.88089,114.99747 620.18204,67.126113 546.43823,43.196143 c -5.93305,-1.925282 -17.6856,-5.261711 -26.11677,-7.414287 l -15.32941,-3.913774 148.75202,0.205912 148.75202,0.205911 7.94858,2.666937 c 14.54072,4.878756 23.12638,10.131002 33.60038,20.55491 14.41353,14.34459 21.19932,27.998198 23.65724,47.600448 4.85598,38.72721 -21.17791,76.46916 -59.69341,86.53895 -7.65485,2.00135 -13.66969,2.42393 -42.42717,2.98078 l -33.50786,0.64884 z"
       id="path4905"
       inkscape:connector-curvature="0" />
  </g>
</svg>
